<svg xmlns="http://www.w3.org/2000/svg" viewBox="0 0 900 620" role="img" aria-labelledby="title desc">
  <title id="title">GF5 character animation preview</title>
  <desc id="desc">A course-style diagram showing a block character, skeleton joints, skinning weights, and a short timeline.</desc>
  <rect width="900" height="620" fill="#f5f7fb"/>
  <rect x="42" y="42" width="816" height="536" rx="8" fill="#ffffff" stroke="#d8e0e6" stroke-width="2"/>
  <rect x="42" y="42" width="816" height="64" rx="8" fill="#1e2a32"/>
  <rect x="42" y="92" width="816" height="14" fill="#1e2a32"/>
  <text x="74" y="83" fill="#ffffff" font-family="Arial, sans-serif" font-size="24" font-weight="700">Animation Viewer</text>
  <circle cx="780" cy="74" r="10" fill="#b94d3e"/>
  <circle cx="812" cy="74" r="10" fill="#b47b00"/>
  <circle cx="844" cy="74" r="10" fill="#0f766e"/>
  <rect x="72" y="138" width="522" height="358" rx="6" fill="#edf4f2" stroke="#d8e0e6"/>
  <line x1="116" y1="450" x2="550" y2="450" stroke="#b8c5cd" stroke-width="3"/>
  <line x1="154" y1="416" x2="506" y2="416" stroke="#d8e0e6" stroke-width="2"/>
  <line x1="196" y1="382" x2="464" y2="382" stroke="#d8e0e6" stroke-width="2"/>
  <g transform="translate(327 274)">
    <rect x="-44" y="-118" width="88" height="114" rx="6" fill="#f2c14e" stroke="#9a6500" stroke-width="5"/>
    <rect x="-31" y="-170" width="62" height="48" rx="6" fill="#4f8cc9" stroke="#315f91" stroke-width="5"/>
    <rect x="-120" y="-104" width="60" height="28" rx="5" fill="#e98973" stroke="#b94d3e" stroke-width="5" transform="rotate(-22 -60 -90)"/>
    <rect x="60" y="-104" width="60" height="28" rx="5" fill="#e98973" stroke="#b94d3e" stroke-width="5" transform="rotate(26 60 -90)"/>
    <rect x="-34" y="0" width="28" height="112" rx="5" fill="#5eb7ad" stroke="#0f766e" stroke-width="5" transform="rotate(8 -20 0)"/>
    <rect x="6" y="0" width="28" height="112" rx="5" fill="#5eb7ad" stroke="#0f766e" stroke-width="5" transform="rotate(-10 20 0)"/>
    <line x1="0" y1="-146" x2="0" y2="-64" stroke="#1e2a32" stroke-width="6" stroke-linecap="round"/>
    <line x1="0" y1="-98" x2="-95" y2="-90" stroke="#1e2a32" stroke-width="6" stroke-linecap="round"/>
    <line x1="0" y1="-98" x2="94" y2="-86" stroke="#1e2a32" stroke-width="6" stroke-linecap="round"/>
    <line x1="-13" y1="-4" x2="-17" y2="96" stroke="#1e2a32" stroke-width="6" stroke-linecap="round"/>
    <line x1="13" y1="-4" x2="18" y2="96" stroke="#1e2a32" stroke-width="6" stroke-linecap="round"/>
    <g fill="#ffffff" stroke="#1e2a32" stroke-width="5">
      <circle cx="0" cy="-146" r="9"/>
      <circle cx="0" cy="-98" r="9"/>
      <circle cx="-95" cy="-90" r="9"/>
      <circle cx="94" cy="-86" r="9"/>
      <circle cx="-13" cy="-4" r="9"/>
      <circle cx="13" cy="-4" r="9"/>
      <circle cx="-17" cy="96" r="9"/>
      <circle cx="18" cy="96" r="9"/>
    </g>
  </g>
  <rect x="626" y="138" width="202" height="114" rx="6" fill="#ffffff" stroke="#d8e0e6"/>
  <text x="650" y="174" fill="#1e2a32" font-family="Arial, sans-serif" font-size="20" font-weight="700">Part 1</text>
  <text x="650" y="204" fill="#586875" font-family="Arial, sans-serif" font-size="17">Forward kinematics</text>
  <polyline points="650,226 690,202 730,218 770,184 810,198" fill="none" stroke="#315f91" stroke-width="5" stroke-linecap="round" stroke-linejoin="round"/>
  <rect x="626" y="278" width="202" height="114" rx="6" fill="#ffffff" stroke="#d8e0e6"/>
  <text x="650" y="314" fill="#1e2a32" font-family="Arial, sans-serif" font-size="20" font-weight="700">Part 2</text>
  <text x="650" y="344" fill="#586875" font-family="Arial, sans-serif" font-size="17">Skinning weights</text>
  <rect x="650" y="362" width="34" height="14" rx="3" fill="#0f766e"/>
  <rect x="692" y="362" width="52" height="14" rx="3" fill="#f2c14e"/>
  <rect x="752" y="362" width="38" height="14" rx="3" fill="#b94d3e"/>
  <rect x="626" y="418" width="202" height="78" rx="6" fill="#ffffff" stroke="#d8e0e6"/>
  <text x="650" y="453" fill="#1e2a32" font-family="Arial, sans-serif" font-size="20" font-weight="700">Evidence</text>
  <text x="650" y="480" fill="#586875" font-family="Arial, sans-serif" font-size="17">Videos and figures</text>
  <rect x="72" y="520" width="756" height="24" rx="5" fill="#d8e0e6"/>
  <rect x="90" y="525" width="110" height="14" rx="4" fill="#315f91"/>
  <rect x="216" y="525" width="78" height="14" rx="4" fill="#0f766e"/>
  <rect x="310" y="525" width="136" height="14" rx="4" fill="#b47b00"/>
  <rect x="462" y="525" width="104" height="14" rx="4" fill="#b94d3e"/>
  <rect x="582" y="525" width="166" height="14" rx="4" fill="#315f91"/>
</svg>
